<?xml version="1.0" encoding="UTF-8"?>
<svg width="184px" height="39px" viewBox="0 0 184 39" version="1.1" xmlns="http://www.w3.org/2000/svg" xmlns:xlink="http://www.w3.org/1999/xlink">
    <!-- Generator: Sketch 52.2 (67145) - http://www.bohemiancoding.com/sketch -->
    <title>argus_logo 2</title>
    <desc>Created with Sketch.</desc>
    <g id="argus_logo-2" stroke="none" stroke-width="1" fill="none" fill-rule="evenodd">
        <ellipse id="Oval" fill="#FFFFFF" fill-rule="nonzero" cx="18.9" cy="19" rx="16.9" ry="17"></ellipse>
        <g id="100pt_VeriskFinancial_Fintellix_KO" transform="translate(2.000000, 1.000000)">
            <g id="g10" transform="translate(90.000000, 17.832098) scale(-1, 1) rotate(-180.000000) translate(-90.000000, -17.832098) translate(0.000000, 0.832098)">
                <g id="g12">
                    <polyline id="path14" fill="#54585A" points="130.437136 13.2560708 138.287458 13.2560708 138.287458 12.2536333 131.615256 12.2536333 131.615256 7.79310203 137.541876 7.79310203 137.541876 6.79056378 131.615256 6.79056378 131.615256 0.912439088 130.437136 0.912439088 130.437136 13.2560708"></polyline>
                    <path d="M139.217163,9.83310198 L140.309113,9.83310198 L140.309113,0.912439088 L139.217163,0.912439088 L139.217163,9.83310198 Z M139.217163,13.2560708 L140.309113,13.2560708 L140.309113,11.5101666 L139.217163,11.5101666 L139.217163,13.2560708 Z" id="path16" fill="#54585A" fill-rule="nonzero"></path>
                    <path d="M142.04196,9.83310198 L143.133573,9.83310198 L143.133573,8.2944551 L143.168243,8.2944551 C143.566785,9.36653804 144.762745,10.0925765 146.027374,10.0925765 C148.540137,10.0925765 149.302885,8.77848077 149.302885,6.65217959 L149.302885,0.912439088 L148.211273,0.912439088 L148.211273,6.47940922 C148.211273,8.0180561 147.70872,9.17633952 145.940866,9.17633952 C144.208019,9.17633952 143.168243,7.86224375 143.133573,6.1163396 L143.133573,0.912439088 L142.04196,0.912439088 L142.04196,9.83310198" id="path18" fill="#54585A"></path>
                    <path d="M152.641679,9.83310198 L154.461034,9.83310198 L154.461034,8.91686496 L152.641679,8.91686496 L152.641679,2.90062472 C152.641679,2.19163491 152.74569,1.7768685 153.525606,1.72505418 C153.837303,1.72505418 154.149337,1.74236815 154.461034,1.7768685 L154.461034,0.843179831 C154.13217,0.843179831 153.820136,0.808810449 153.490599,0.808810449 C152.035115,0.808810449 151.532563,1.29283947 151.550066,2.81405149 L151.550066,8.91686496 L149.990235,8.91686496 L149.990235,9.83310198 L151.550066,9.83310198 L151.550066,12.5129735 L152.641679,12.5129735 L152.641679,9.83310198" id="path20" fill="#54585A"></path>
                    <path d="M161.707822,5.99538355 C161.655985,7.63765907 160.633713,9.17633952 158.865859,9.17633952 C157.080838,9.17633952 156.093573,7.62023092 155.919884,5.99538355 L161.707822,5.99538355 Z M155.919884,5.07874358 C155.937387,3.48828238 156.769141,1.56961458 158.865859,1.56961458 C160.460024,1.56961458 161.326784,2.50291036 161.673488,3.851352 L162.765101,3.851352 C162.296882,1.82867946 161.118762,0.652977959 158.865859,0.652977959 C156.023895,0.652977959 154.828271,2.83149642 154.828271,5.37297369 C154.828271,7.72385956 156.023895,10.0925765 158.865859,10.0925765 C161.742829,10.0925765 162.886279,7.58584475 162.799772,5.07874358 L155.919884,5.07874358 Z" id="path22" fill="#54585A" fill-rule="nonzero"></path>
                    <polyline id="path24" fill="#54585A" points="164.061034 13.2560708 165.152647 13.2560708 165.152647 0.912439088 164.061034 0.912439088 164.061034 13.2560708"></polyline>
                    <polyline id="path26" fill="#54585A" points="166.902997 13.2560708 167.994274 13.2560708 167.994274 0.912439088 166.902997 0.912439088 166.902997 13.2560708"></polyline>
                    <path d="M169.744287,9.83310198 L170.836237,9.83310198 L170.836237,0.912439088 L169.744287,0.912439088 L169.744287,9.83310198 Z M169.744287,13.2560708 L170.836237,13.2560708 L170.836237,11.5101666 L169.744287,11.5101666 L169.744287,13.2560708 Z" id="path28" fill="#54585A" fill-rule="nonzero"></path>
                    <polyline id="path30" fill="#54585A" points="175.123586 5.54571048 171.917415 9.83310198 173.286728 9.83310198 175.834161 6.44465367 178.329421 9.83310198 179.698733 9.83310198 176.475059 5.56317221 179.958256 0.912439088 178.572113 0.912439088 175.764484 4.66399396 173.009365 0.912439088 171.657555 0.912439088 175.123586 5.54571048"></polyline>
                    <path d="M53.5287504,24.5314107 C53.2961558,25.9660596 52.0907701,27.1262907 50.6103774,27.1262907 C49.1511909,27.1262907 47.7976987,25.9660596 47.5863102,24.5314107 L53.5287504,24.5314107 Z M47.5014855,23.0969298 C47.5226917,21.2614 48.8337716,19.7845407 50.758484,19.7845407 C52.1964643,19.7845407 53.126843,20.649635 53.7825513,21.8310888 L55.2205316,21.0081042 C54.2689467,19.2361082 52.6616537,18.2233279 50.6315836,18.2233279 C47.6707982,18.2233279 45.7676286,20.4807936 45.7676286,23.3291036 C45.7676286,26.2611964 47.4802793,28.6876378 50.5891712,28.6876378 C53.7825513,28.6876378 55.474669,26.0505475 55.3053563,23.0969298 L47.5014855,23.0969298 Z" id="path32" fill="#54585A" fill-rule="nonzero"></path>
                    <path d="M58.2722005,27.3373425 L58.3142762,27.3373425 C58.906366,28.1179489 59.4143043,28.6876378 60.5136591,28.6876378 C61.0848793,28.6876378 61.5500686,28.4977079 62.0368007,28.2235252 L61.2329858,26.6834344 C60.8943603,26.9156082 60.6621023,27.1262907 60.2177825,27.1262907 C58.3566886,27.1262907 58.2722005,24.7424626 58.2722005,23.4555332 L58.2722005,18.4976114 L56.5804193,18.4976114 L56.5804193,28.4133544 L58.2722005,28.4133544 L58.2722005,27.3373425" id="path34" fill="#54585A"></path>
                    <path d="M64.5764921,18.4976114 L62.8843743,18.4976114 L62.8843743,28.4133544 L64.5764921,28.4133544 L64.5764921,18.4976114 Z M64.9356506,31.7061661 C64.9356506,31.0310353 64.3859731,30.5037247 63.7302649,30.5037247 C63.0748932,30.5037247 62.5252158,31.0310353 62.5252158,31.7061661 C62.5252158,32.3600743 63.0748932,32.9086412 63.7302649,32.9086412 C64.3859731,32.9086412 64.9356506,32.3600743 64.9356506,31.7061661 Z" id="path36" fill="#54585A" fill-rule="nonzero"></path>
                    <path d="M70.441513,26.1138798 C70.2085817,26.6411904 69.70098,27.1262907 69.0880207,27.1262907 C68.495931,27.1262907 67.8614289,26.6623124 67.8614289,26.0294255 C67.8614289,25.1220873 69.003196,24.7847065 70.166506,24.2992369 C71.3294793,23.8141703 72.471583,23.1179174 72.471583,21.4514977 C72.471583,19.5736232 70.948778,18.2233279 69.1092269,18.2233279 C67.4383153,18.2233279 66.1272354,19.1727422 65.5987641,20.7340894 L67.100363,21.3670098 C67.52314,20.4386839 68.0091989,19.7845407 69.1304331,19.7845407 C70.0392689,19.7845407 70.7373895,20.3963392 70.7373895,21.3036439 C70.7373895,23.5188992 66.2541358,22.7594147 66.2541358,25.881706 C66.2541358,27.5485287 67.607628,28.6876378 69.2145845,28.6876378 C70.3570249,28.6876378 71.4139674,27.8860437 71.8586237,26.8523766 L70.441513,26.1138798" id="path38" fill="#54585A"></path>
                    <polyline id="path40" fill="#54585A" points="81.1300961 28.4133544 78.8670948 28.4133544 75.2509378 24.7424626 75.2509378 32.9086412 73.55882 32.9086412 73.55882 18.4976114 75.2509378 18.4976114 75.2509378 22.5693505 75.694921 23.0124419 79.6917792 18.4976114 81.9332378 18.4976114 76.8794371 24.1941643 81.1300961 28.4133544"></polyline>
                    <polyline id="path42" fill="#54585A" points="45.8235052 32.9086412 42.0356792 22.7999461 38.2461702 32.9086412 36.3335755 32.9086412 41.9814856 18.2008963 42.0356792 18.0579116 47.7364364 32.9086412 45.8235052 32.9086412"></polyline>
                    <polyline id="path44" fill="#54585A" points="41.3479934 13.7896609 41.3479934 9.62493803 46.1277969 9.62493803 46.1277969 8.05113264 41.3479934 8.05113264 41.3479934 0.945888371 39.655539 0.945888371 39.655539 15.3600747 46.2809526 15.3600747 46.2809526 13.7896609 41.3479934 13.7896609"></polyline>
                    <path d="M49.2686664,0.945495483 L47.5765486,0.945495483 L47.5765486,10.8612284 L49.2686664,10.8612284 L49.2686664,0.945495483 Z M49.6274882,14.1543424 C49.6274882,13.4790436 49.0781474,12.951733 48.4224392,12.951733 C47.7670675,12.951733 47.2170535,13.4790436 47.2170535,14.1543424 C47.2170535,14.8082169 47.7670675,15.3566831 48.4224392,15.3566831 C49.0781474,15.3566831 49.6274882,14.8082169 49.6274882,14.1543424 Z" id="path46" fill="#54585A" fill-rule="nonzero"></path>
                    <path d="M53.1446831,9.6586526 L53.1870954,9.6586526 C53.885216,10.6080669 54.7943885,11.1353775 56.0209804,11.1353775 C58.7700406,11.1353775 59.4048793,9.15232965 59.4048793,6.83159884 L59.4048793,0.945495483 L57.7127615,0.945495483 L57.7127615,6.53646206 C57.7127615,8.13968375 57.5858611,9.57443334 55.6187363,9.57443334 C53.2927897,9.57443334 53.1446831,7.42214105 53.1446831,5.65041369 L53.1446831,0.945495483 L51.4532385,0.945495483 L51.4532385,10.8612284 L53.1446831,10.8612284 L53.1446831,9.6586526" id="path48" fill="#54585A"></path>
                    <path d="M62.4844865,6.00878207 C62.4844865,4.06781027 63.6262537,2.23269348 65.7408118,2.23269348 C67.9189885,2.23269348 69.0610922,3.98385965 69.0610922,5.98779442 C69.0610922,7.97111091 67.8136308,9.57443334 65.7199423,9.57443334 C63.7531541,9.57443334 62.4844865,7.86550104 62.4844865,6.00878207 Z M70.6683853,0.945495483 L68.9766042,0.945495483 L68.9766042,2.31690602 L68.9341918,2.31690602 C68.0674317,1.2200375 66.9044584,0.671342996 65.5085538,0.671342996 C62.5898442,0.671342996 60.750293,3.13975301 60.750293,5.88258751 C60.750293,8.70933904 62.5477684,11.1353775 65.5297599,11.1353775 C66.8829156,11.1353775 68.109844,10.5027592 68.9341918,9.44746643 L68.9766042,9.44746643 L68.9766042,10.8612284 L70.6683853,10.8612284 L70.6683853,0.945495483 Z" id="path50" fill="#54585A" fill-rule="nonzero"></path>
                    <path d="M74.3845143,9.6586526 L74.4269266,9.6586526 C75.1247106,10.6080669 76.0342197,11.1353775 77.2604749,11.1353775 C80.0098718,11.1353775 80.6440373,9.15232965 80.6440373,6.83159884 L80.6440373,0.945495483 L78.9522561,0.945495483 L78.9522561,6.53646206 C78.9522561,8.13968375 78.8256923,9.57443334 76.8589041,9.57443334 C74.5326209,9.57443334 74.3845143,7.42214105 74.3845143,5.65041369 L74.3845143,0.945495483 L72.6927331,0.945495483 L72.6927331,10.8612284 L74.3845143,10.8612284 L74.3845143,9.6586526" id="path52" fill="#54585A"></path>
                    <path d="M90.2544718,7.90787931 L90.2120595,7.90787931 C89.4294508,8.89916817 88.4566598,9.57443334 87.1243737,9.57443334 C85.0727608,9.57443334 83.613911,7.88648869 83.613911,5.90357516 C83.613911,3.94148138 84.9677398,2.23269348 87.039549,2.23269348 C88.4566598,2.23269348 89.4503203,2.86560052 90.2753414,3.94148138 L90.3177537,3.94148138 L90.3177537,1.68399561 C89.3446261,1.03010091 88.3509655,0.671342996 87.166786,0.671342996 C84.1635884,0.671342996 81.8797174,2.90757583 81.8797174,5.90357516 C81.8797174,8.85692422 84.2696192,11.1353775 87.1879922,11.1353775 C88.2664775,11.1353775 89.3658323,10.7766397 90.2544718,10.1437193 L90.2544718,7.90787931" id="path54" fill="#54585A"></path>
                    <path d="M93.769647,0.945495483 L92.0775293,0.945495483 L92.0775293,10.8612284 L93.769647,10.8612284 L93.769647,0.945495483 Z M94.1288055,14.1543424 C94.1288055,13.4790436 93.5791281,12.951733 92.9234198,12.951733 C92.2680482,12.951733 91.7180342,13.4790436 91.7180342,14.1543424 C91.7180342,14.8082169 92.2680482,15.3566831 92.9234198,15.3566831 C93.5791281,15.3566831 94.1288055,14.8082169 94.1288055,14.1543424 Z" id="path56" fill="#54585A" fill-rule="nonzero"></path>
                    <path d="M96.9394646,6.00878207 C96.9394646,4.06781027 98.0812318,2.23269348 100.19579,2.23269348 C102.374303,2.23269348 103.51607,3.98385965 103.51607,5.98779442 C103.51607,7.97111091 102.268609,9.57443334 100.175257,9.57443334 C98.2084688,9.57443334 96.9394646,7.86550104 96.9394646,6.00878207 Z M105.1237,0.945495483 L103.431582,0.945495483 L103.431582,2.31690602 L103.38917,2.31690602 C102.52241,1.2200375 101.359436,0.671342996 99.9638685,0.671342996 C97.0454955,0.671342996 95.2052711,3.13975301 95.2052711,5.88258751 C95.2052711,8.70933904 97.0030831,11.1353775 99.984738,11.1353775 C101.338567,11.1353775 102.564822,10.5027592 103.38917,9.44746643 L103.431582,9.44746643 L103.431582,10.8612284 L105.1237,10.8612284 L105.1237,0.945495483 Z" id="path58" fill="#54585A" fill-rule="nonzero"></path>
                    <polyline id="path60" fill="#54585A" points="108.818623 0.945495483 107.127178 0.945495483 107.127178 15.3566831 108.818623 15.3566831 108.818623 0.945495483"></polyline>
                    <path d="M18.2865185,22.3905357 C12.1605607,22.475796 5.99579228,22.0077881 0.401035614,20.9948735 C0.221949504,20.3092321 0.09072572,19.6053565 0,18.8888884 C5.09510226,19.2030316 10.6708104,19.3665003 16.2699126,19.3771116 C17.0114891,20.5038968 17.6869224,21.5110355 18.2865185,22.3905357" id="path62" fill="#016C9D"></path>
                    <path d="M5.20227757,10.7805686 C3.68859458,10.9605252 2.20503108,11.1802407 0.752761833,11.4311859 C1.03651049,10.5988995 1.38363531,9.79572716 1.79019126,9.02771335 C3.56788771,8.54761658 5.39596059,8.15382103 7.2571555,7.84978548 C6.4375875,8.92317805 5.98199144,9.57732124 5.20227757,10.7805686" id="path64" fill="#016C9D"></path>
                    <path d="M7.17458608,2.99612022 C9.92330971,1.10919918 13.2608244,0.000131172836 16.8618677,0.000131172836 C20.4630121,0.000131172836 23.8003921,1.10919918 26.5491157,2.99612022 C23.3807119,2.28280192 20.1213908,1.9260118 16.8618677,1.9260118 C13.602311,1.9260118 10.3431246,2.28280192 7.17458608,2.99612022" id="path66" fill="#016C9D"></path>
                    <path d="M3.11492054,14.5189903 C2.05842239,14.5697636 1.02204654,14.6281261 0.000394461701,14.691089 C0.09072572,13.9739829 0.222212393,13.26957 0.401429443,12.5835256 C1.73010038,12.3448036 3.08770259,12.1336175 4.47160718,11.9548362 C3.90752304,12.9045192 3.48676569,13.766054 3.11492054,14.5189903" id="path68" fill="#016C9D"></path>
                    <path d="M8.1876688,6.6154428 C6.2762523,6.88932328 4.39691434,7.25924328 2.56333121,7.71533018 C3.32661198,6.54435342 4.2322804,5.47331147 5.25788486,4.52624779 C7.06781469,4.01690262 8.91517509,3.62535695 10.7838763,3.36104683 C9.72447662,4.58816976 8.91480483,5.64739146 8.1876688,6.6154428" id="path70" fill="#016C9D"></path>
                    <path d="M15.5625017,18.2987492 C12.3423952,18.2851156 9.13437284,18.223966 6.02904894,18.1094573 C6.34660293,17.4768055 6.88897598,16.4144608 7.43663376,15.4255226 C9.4615201,15.36125 11.5195621,15.3170584 13.5944008,15.2950297 C14.1735985,16.1778208 14.8316967,17.1823403 15.5625017,18.2987492" id="path72" fill="#016C9D"></path>
                    <path d="M8.06803907,14.3296984 C8.08550891,14.3015246 8.10324804,14.2706979 8.12034762,14.2431285 C8.61145561,13.4440194 9.19156218,12.5575681 9.65705446,11.8590654 C9.76355656,11.6996935 9.86214842,11.5525113 9.95421013,11.4157054 C10.283579,10.9264412 10.5061765,10.6028284 10.5061765,10.6028284 C10.5061765,10.6028284 10.6740755,10.8572995 10.996241,11.345254 C11.095506,11.4950555 11.2076631,11.6653409 11.3354724,11.8590654 C11.723074,12.4471227 12.2503672,13.2479444 12.8949001,14.2297636 C11.2723588,14.2503483 9.66031953,14.2831562 8.06803907,14.3296984" id="path74" fill="#016C9D"></path>
                    <path d="M31.1616935,25.8629682 C30.4099852,27.0164833 29.5197973,28.0726828 28.5132784,29.009538 C20.9705465,31.1473908 12.75329,31.1473908 5.21055807,29.009538 C4.20403917,28.0726828 3.31385798,27.0164833 2.56201845,25.8629682 C11.6924429,28.1425968 22.0312589,28.1425968 31.1616935,25.8629682" id="path76" fill="#016C9D"></path>
                    <path d="M19.7420696,15.2897576 C24.603803,15.3351581 29.4017496,15.4967463 33.8265349,15.7727423 C33.8470679,16.1095858 33.8605321,16.4481418 33.8605321,16.7899887 C33.8605321,17.1318356 33.8470679,17.4703917 33.8265349,17.8069665 C29.9723976,18.0470316 25.8358142,18.199721 21.6200948,18.2653032 C21.0069672,17.2894949 20.4428831,16.3809813 19.7420696,15.2897576" id="path78" fill="#016C9D"></path>
                    <path d="M17.0097724,11.1727859 C22.6130822,11.1806437 28.2065294,11.6524797 33.3213568,12.5798654 C33.5008351,13.2665478 33.6327173,13.9720016 33.7235335,14.6901823 C29.1117973,14.4061942 24.103472,14.2464194 19.0425689,14.2107572 C18.4847793,13.3583898 17.8247289,12.3690822 17.0097724,11.1727859" id="path80" fill="#016C9D"></path>
                    <path d="M22.2942154,19.3313417 C26.2388324,19.2614277 30.1018899,19.1132045 33.7235335,18.8896608 C33.6327173,19.6077072 33.5008351,20.313161 33.3213568,21.0002464 C30.3839319,21.5303106 27.2900526,21.9111106 24.1255534,22.1406651 C23.391214,21.0372518 22.8043753,20.1328015 22.2942154,19.3313417" id="path82" fill="#016C9D"></path>
                    <path d="M26.4801115,30.6325385 C23.7445155,32.4906007 20.4327512,33.5802461 16.8618677,33.5802461 C13.2910516,33.5802461 9.97918629,32.4906007 7.24359028,30.6325385 C13.5372114,32.0369987 20.1864904,32.0369987 26.4801115,30.6325385" id="path84" fill="#016C9D"></path>
                    <path d="M19.0153375,23.4526453 C19.9715002,24.8357485 20.6747036,25.8129673 21.0700808,26.3540793 C14.5526841,26.8055657 7.87078802,26.2126729 1.79610879,24.5638157 C1.38758033,23.7934513 1.03913938,22.9876597 0.754074595,22.1525861 C6.48663097,23.1475352 12.7850993,23.5823994 19.0153375,23.4526453" id="path86" fill="#016C9D"></path>
                    <path d="M16.2767457,10.1066131 C15.6370599,9.19101409 14.8783839,8.1416314 14.1312535,7.12673562 C20.1759883,6.856146 26.3111354,7.48839487 31.9279768,9.01696768 C32.3356065,9.78561951 32.6833877,10.5893291 32.9680553,11.4226565 C27.8968857,10.541175 22.3803529,10.0987217 16.8618677,10.0987217 C16.6666027,10.0987217 16.4719771,10.1053035 16.2767457,10.1066131" id="path88" fill="#016C9D"></path>
                    <path d="M13.3748328,6.10556034 C12.4876743,4.91544284 11.6898174,3.870392 11.2322353,3.29716041 C16.9801847,2.54514759 22.9016881,2.95506165 28.4596234,4.52033766 C29.4882573,5.46938258 30.39642,6.54304379 31.1616935,7.71704277 C26.5964762,6.57739638 21.7321173,5.99629022 16.8618677,5.99629022 C15.697548,5.99629022 14.5349449,6.04064973 13.3748328,6.10556034" id="path90" fill="#016C9D"></path>
                    <polyline id="path92" fill="#54585A" points="119.30154 0.000787037017 118.897613 0.000787037017 118.897613 33.5802461 119.30154 33.5802461 119.30154 0.000787037017"></polyline>
                </g>
            </g>
        </g>
    </g>
</svg>