<svg id="Homepage_Banner" data-name="Homepage Banner" xmlns="http://www.w3.org/2000/svg" viewBox="0 0 1191.78 265.8"><defs><style>.cls-1{fill:#fff;}</style></defs><path class="cls-1" d="M40.49,66.54H169.62v40H80.52a40.14,40.14,0,0,1-40-40ZM0,11.55H169.62v40H40A40.14,40.14,0,0,1,0,11.55Zm81,110h88.64v40H121A40.14,40.14,0,0,1,81,121.55Z"/><path class="cls-1" d="M744,133.4V0h39.7V173.14H717a66.87,66.87,0,0,1-66.67-66.66V0h39.74v106.5A27.12,27.12,0,0,0,717,133.4Z"/><path class="cls-1" d="M233.23,109.11l.14,3a22.58,22.58,0,0,0,19.85,21.18l5.21.59h68.49v39.29H255.7a62.28,62.28,0,0,1-62.1-62.1V60.49l.05-1.57.11-1.57.16-1.81L194.1,54l.26-1.79.27-1.54.25-1.29.3-1.34.37-1.51.51-1.87.37-1.21.46-1.4.47-1.32.5-1.28.71-1.75.57-1.29.77-1.62.75-1.45.66-1.23.55-1,.8-1.34.74-1.17,1.05-1.58.78-1.11.75-1,.89-1.15,1.2-1.48.79-.92,1-1.08.81-.87,1.06-1.09L213.09,17l1-1,1-.84,1.58-1.33,1-.79,1.09-.84.85-.62.9-.63,1.14-.77,1-.64,1.18-.73,1-.62a21.36,21.36,0,0,1,1.91-1l1.19-.62,1.22-.6,1-.48L231.42,5l2.09-.85,1.27-.47L236,3.21l1-.33A60.45,60.45,0,0,1,255.62,0h71.22V47a62.28,62.28,0,0,1-62.1,62.1Zm54-69.39H255.7a22.52,22.52,0,0,0-22.36,22.36v7.29h31.48A22.55,22.55,0,0,0,287.18,47V39.72Z"/><path class="cls-1" d="M564.78,0a66.9,66.9,0,0,0-66.47,61.75l-.18,2.48v48l.07,1.94.09,1.51.13,1.51.16,1.42.2,1.47.22,1.34.14.83.24,1.2.28,1.3.48,2,.41,1.48.38,1.26.41,1.27c.24.71.46,1.33.69,1.94l.44,1.13.58,1.4.51,1.17.57,1.22.54,1.11.56,1.08.58,1.09.52.92L507,143l.6,1,1.19,1.83.34.5c.6.84,1.19,1.68,1.82,2.48l.91,1.16.82,1c.81.95,1.6,1.83,2.4,2.69l.8.83.91.91a61.3,61.3,0,0,0,43.4,17.79h31.46l-22.61-39.7h-8.84a22.53,22.53,0,0,1-22.36-22.36V66.64a27.1,27.1,0,0,1,26.91-26.92H591.7v133.4h0l0,0v37l.38,3.4a62.44,62.44,0,0,0,29.43,46.17l9.94,6.09V0Z"/><path class="cls-1" d="M842.28,109.11l.14,3a22.58,22.58,0,0,0,19.85,21.18l5.21.59H936v39.29H864.74a62.28,62.28,0,0,1-62.09-62.1V60.49l.05-1.57.09-1.57.16-1.81.18-1.51.27-1.79.27-1.54.25-1.29.3-1.34.37-1.51.51-1.87.37-1.21.46-1.4.47-1.32.5-1.28.71-1.75.59-1.29.81-1.58.73-1.45.66-1.23.55-1,.8-1.34.74-1.17,1-1.58.78-1.12.74-1,.89-1.15,1.21-1.5.79-.92,1-1.08.81-.87,1.06-1.09L822.13,17l1-1,.92-.82,1-.86,1.21-1,1.49-1.15.84-.62.91-.63,1.13-.77,1-.64,1.18-.73,1-.62a21.36,21.36,0,0,1,1.91-1l1.19-.62,1.22-.6,1-.48,1.27-.56,2.09-.85,1.28-.47L845,3.19l1-.33A60.75,60.75,0,0,1,864.61,0H936V47a62.3,62.3,0,0,1-62.1,62.1Zm54-69.39H864.74a22.52,22.52,0,0,0-22.35,22.36v7.29h31.47A22.53,22.53,0,0,0,896.22,47V39.72Z"/><path class="cls-1" d="M954.92,173.14V62.08A62.28,62.28,0,0,1,1017,0h21.45V39.72H1017a22.69,22.69,0,0,0-22.36,22.36V173.14Z"/><path class="cls-1" d="M1191.78,0V111.7c0,34-28.08,62.09-62.11,62.09H1050.9V62.08A62.28,62.28,0,0,1,1113,0ZM1090.64,134.05h39A22.53,22.53,0,0,0,1152,111.7v-72h-39a22.52,22.52,0,0,0-22.36,22.36v72Z"/><path class="cls-1" d="M385.6,39.72V173.14H345.86V0h66.66a66.87,66.87,0,0,1,66.66,66.66v106.5H439.43V66.64a27.09,27.09,0,0,0-26.92-26.92Z"/></svg>