<svg id="Layer_1" data-name="Layer 1" xmlns="http://www.w3.org/2000/svg" xmlns:xlink="http://www.w3.org/1999/xlink" width="280.67" height="29" viewBox="0 0 280.67 29"><defs><style>.cls-1{fill:#fff;}.cls-2,.cls-4{fill:none;}.cls-3{fill:url(#linear-gradient);}.cls-4{stroke:#fff;stroke-miterlimit:10;stroke-width:0.75px;opacity:0.51;}</style><linearGradient id="linear-gradient" x1="-340.94" y1="278.03" x2="-339.87" y2="278.03" gradientTransform="matrix(0, -26.69, -26.69, 0, 7555.15, -9070.73)" gradientUnits="userSpaceOnUse"><stop offset="0" stop-color="#f1da65"/><stop offset="0.01" stop-color="#f1da65"/><stop offset="0.04" stop-color="#d9bd54"/><stop offset="0.08" stop-color="#c09f43"/><stop offset="0.11" stop-color="#ae8a36"/><stop offset="0.15" stop-color="#a47d2f"/><stop offset="0.18" stop-color="#a0792c"/><stop offset="0.3" stop-color="#bb993f"/><stop offset="0.51" stop-color="#f1da65"/><stop offset="0.58" stop-color="#ebd15d"/><stop offset="0.69" stop-color="#d9b848"/><stop offset="0.71" stop-color="#d6b344"/><stop offset="1" stop-color="#96722b"/></linearGradient></defs><title>logo</title><path class="cls-1" d="M63.8,13.7a.91.91,0,1,0,.91.91.94.94,0,0,0-.91-.91"/><path class="cls-1" d="M63.8,8.25a.91.91,0,1,0,.91.9.89.89,0,0,0-.91-.9"/><path class="cls-1" d="M63.8,11a.91.91,0,1,0,.91.91A.9.9,0,0,0,63.8,11"/><path class="cls-1" d="M66.19,4.09A.91.91,0,1,0,67.1,5a.9.9,0,0,0-.91-.91"/><path class="cls-1" d="M66.19,1.71a.57.57,0,1,0,.57.56.61.61,0,0,0-.57-.56"/><path class="cls-1" d="M63.8,18.31a.91.91,0,1,0-.91-.91.9.9,0,0,0,.91.91"/><path class="cls-1" d="M63.8,5.46a.91.91,0,1,0,.91.91.9.9,0,0,0-.91-.91"/><path class="cls-1" d="M61.41,15.13a.91.91,0,1,0,.91.91.89.89,0,0,0-.91-.91"/><path class="cls-1" d="M61.41,13.87a.57.57,0,1,0-.57-.56.57.57,0,0,0,.57.56"/><path class="cls-1" d="M56.64,13.87a.57.57,0,1,0-.57-.56.6.6,0,0,0,.57.56"/><path class="cls-1" d="M59,20.75a.57.57,0,0,0,.57-.56.61.61,0,0,0-.57-.57.57.57,0,0,0-.57.57.61.61,0,0,0,.57.56"/><path class="cls-1" d="M61.41,7.22a.57.57,0,1,0,.57.57.54.54,0,0,0-.57-.57"/><path class="cls-1" d="M56.64,7.22a.57.57,0,1,0,.56.57.53.53,0,0,0-.56-.57"/><path class="cls-1" d="M63.8,2.73a.91.91,0,1,0,.91.91.9.9,0,0,0-.91-.91"/><path class="cls-1" d="M63.8.34a.58.58,0,0,0-.57.57.57.57,0,1,0,1.14,0A.58.58,0,0,0,63.8.34"/><path class="cls-1" d="M61.41,19.73a.91.91,0,1,0-.91-.91.9.9,0,0,0,.91.91"/><path class="cls-1" d="M66.19,9.61a.91.91,0,1,0,.91.91.9.9,0,0,0-.91-.91"/><path class="cls-1" d="M76.76,6.88a.91.91,0,1,0,.91.91.9.9,0,0,0-.91-.91"/><path class="cls-1" d="M76.76,4.09a.91.91,0,1,0,0,1.82.91.91,0,0,0,0-1.82"/><path class="cls-1" d="M68.58,11a.91.91,0,1,0,.91.91.89.89,0,0,0-.91-.91"/><path class="cls-1" d="M76.76,1.36a.9.9,0,0,0-.91.91.91.91,0,1,0,1.82,0,.89.89,0,0,0-.91-.91"/><path class="cls-1" d="M76.76,15.13a.91.91,0,1,0,.91.91.89.89,0,0,0-.91-.91"/><path class="cls-1" d="M76.76,12.34a.91.91,0,1,0,.91.91.93.93,0,0,0-.91-.91"/><path class="cls-1" d="M76.76,9.61a.91.91,0,1,0,.91.91.9.9,0,0,0-.91-.91"/><path class="cls-1" d="M51.86,12.34a.91.91,0,1,0,.91.91.9.9,0,0,0-.91-.91"/><path class="cls-1" d="M66.19,17a.91.91,0,1,0-.91-.91.87.87,0,0,0,.91.91"/><path class="cls-1" d="M68.58,8.25a.91.91,0,1,0,.91.9.89.89,0,0,0-.91-.9"/><path class="cls-1" d="M61.41,4.09a.91.91,0,1,0,.91.91.9.9,0,0,0-.91-.91"/><path class="cls-1" d="M66.19,12.34a.91.91,0,1,0,.91.91.93.93,0,0,0-.91-.91"/><path class="cls-1" d="M68.58,15.24a.57.57,0,0,0,0-1.14.61.61,0,0,0-.57.57.58.58,0,0,0,.57.57"/><path class="cls-1" d="M68.58,5.46a.91.91,0,1,0,.91.91.89.89,0,0,0-.91-.91"/><path class="cls-1" d="M54.25,19.22a.91.91,0,1,0,.91.91.87.87,0,0,0-.91-.91"/><path class="cls-1" d="M54.25,8.25a.91.91,0,1,0,.91.9.86.86,0,0,0-.91-.9"/><path class="cls-1" d="M61.41,1.36a.9.9,0,0,0-.91.91.91.91,0,1,0,1.82,0,.9.9,0,0,0-.91-.91"/><path class="cls-1" d="M54.25,2.73a.91.91,0,1,0,.91.91.87.87,0,0,0-.91-.91"/><path class="cls-1" d="M54.25,0a.9.9,0,0,0-.91.91.91.91,0,1,0,1.82,0A.9.9,0,0,0,54.25,0"/><path class="cls-1" d="M54.25,16.49a.91.91,0,1,0,.91.91.87.87,0,0,0-.91-.91"/><path class="cls-1" d="M54.25,13.7a.91.91,0,1,0,.91.91.9.9,0,0,0-.91-.91"/><path class="cls-1" d="M54.25,11a.91.91,0,1,0,.91.91.87.87,0,0,0-.91-.91"/><path class="cls-1" d="M51.86,17.85a.91.91,0,1,0,.91.91.9.9,0,0,0-.91-.91"/><path class="cls-1" d="M51.86,20.58a.91.91,0,1,0,.91.91.9.9,0,0,0-.91-.91"/><path class="cls-1" d="M54.25,29a.57.57,0,0,0,.57-.57.57.57,0,1,0-1.14,0,.61.61,0,0,0,.57.57"/><path class="cls-1" d="M51.86,15.13a.91.91,0,1,0,.91.91.86.86,0,0,0-.91-.91"/><path class="cls-1" d="M76.76,17.85a.91.91,0,1,0,0,1.82.91.91,0,0,0,0-1.82"/><path class="cls-1" d="M51.86,23.37a.91.91,0,1,0,.91.91.87.87,0,0,0-.91-.91"/><path class="cls-1" d="M51.86,28a.91.91,0,1,0-.91-.91.94.94,0,0,0,.91.91"/><path class="cls-1" d="M54.25,5.46a.91.91,0,1,0,.91.91.9.9,0,0,0-.91-.91"/><path class="cls-1" d="M59,2.73a.91.91,0,1,0,.91.91A.9.9,0,0,0,59,2.73"/><path class="cls-1" d="M59,5.46a.91.91,0,1,0,.91.91A.9.9,0,0,0,59,5.46"/><path class="cls-1" d="M59,0a.9.9,0,0,0-.91.91.91.91,0,0,0,1.82,0A.89.89,0,0,0,59,0"/><path class="cls-1" d="M56.64,19.73a.91.91,0,1,0-.91-.91.9.9,0,0,0,.91.91"/><path class="cls-1" d="M54.25,22a.91.91,0,1,0,.91.91.87.87,0,0,0-.91-.91"/><path class="cls-1" d="M59,13.7a.91.91,0,0,0,0,1.82.89.89,0,0,0,.91-.91A.93.93,0,0,0,59,13.7"/><path class="cls-1" d="M59,18.31a.91.91,0,1,0-.91-.91.89.89,0,0,0,.91.91"/><path class="cls-1" d="M56.64,4.09a.91.91,0,1,0,.91.91.89.89,0,0,0-.91-.91"/><path class="cls-1" d="M56.64,1.36a.89.89,0,0,0-.91.91.91.91,0,0,0,1.82,0,.87.87,0,0,0-.91-.91"/><path class="cls-1" d="M54.25,24.74a.91.91,0,1,0,.91.91.87.87,0,0,0-.91-.91"/><path class="cls-1" d="M56.64,15.13a.91.91,0,0,0,0,1.82.9.9,0,0,0,.91-.91.87.87,0,0,0-.91-.91"/><path class="cls-1" d="M66.19,6.88a.91.91,0,1,0,.91.91.9.9,0,0,0-.91-.91"/><path class="cls-1" d="M88.65,2.73a.91.91,0,1,0,.91.91.9.9,0,0,0-.91-.91"/><path class="cls-1" d="M88.65,5.46a.91.91,0,1,0,.91.91.9.9,0,0,0-.91-.91"/><path class="cls-1" d="M88.65,16.49a.91.91,0,1,0,.91.91.9.9,0,0,0-.91-.91"/><path class="cls-1" d="M88.65,13.7a.91.91,0,1,0,.91.91.94.94,0,0,0-.91-.91"/><path class="cls-1" d="M91,1.36a.9.9,0,0,0-.91.91.91.91,0,1,0,1.82,0A.9.9,0,0,0,91,1.36"/><path class="cls-1" d="M91,6.88a.91.91,0,1,0,.91.91A.9.9,0,0,0,91,6.88"/><path class="cls-1" d="M91,9.61a.91.91,0,1,0,.91.91A.9.9,0,0,0,91,9.61"/><path class="cls-1" d="M91,4.09A.91.91,0,1,0,92,5,.9.9,0,0,0,91,4.09"/><path class="cls-1" d="M86.26,4.09a.91.91,0,1,0,.91.91.9.9,0,0,0-.91-.91"/><path class="cls-1" d="M88.65.34a.58.58,0,0,0-.57.57.57.57,0,0,0,.57.57.58.58,0,0,0,.57-.57.54.54,0,0,0-.57-.57"/><path class="cls-1" d="M86.26,7.22a.57.57,0,1,0,.57.57.54.54,0,0,0-.57-.57"/><path class="cls-1" d="M86.26,12.68a.57.57,0,0,0-.57.57.57.57,0,0,0,1.14,0,.57.57,0,0,0-.57-.57"/><path class="cls-1" d="M88.65,19.56a.58.58,0,0,0-.57.57.57.57,0,0,0,.57.57.57.57,0,1,0,0-1.14"/><path class="cls-1" d="M86.26,1.36a.9.9,0,0,0-.91.91.91.91,0,1,0,1.82,0,.9.9,0,0,0-.91-.91"/><path class="cls-1" d="M86.26,15.13a.91.91,0,1,0,.91.91.89.89,0,0,0-.91-.91"/><path class="cls-1" d="M86.26,19.73a.91.91,0,1,0-.91-.91.9.9,0,0,0,.91.91"/><path class="cls-1" d="M83.87,20.75a.57.57,0,0,0,.57-.56.61.61,0,0,0-.57-.57.57.57,0,0,0-.57.57.61.61,0,0,0,.57.56"/><path class="cls-1" d="M95.81,4.44a.57.57,0,0,0,0,1.13A.57.57,0,0,0,96.38,5a.6.6,0,0,0-.57-.56"/><path class="cls-1" d="M93.43,18a.57.57,0,1,0-.57-.57.54.54,0,0,0,.57.57"/><path class="cls-1" d="M91,19.33a.57.57,0,1,0-.57-.57.54.54,0,0,0,.57.57"/><path class="cls-1" d="M95.81,8.7a.91.91,0,1,0-.91-.91.87.87,0,0,0,.91.91"/><path class="cls-1" d="M95.81,12.34a.91.91,0,1,0,.91.91.93.93,0,0,0-.91-.91"/><path class="cls-1" d="M95.81,9.61a.91.91,0,1,0,.91.91.9.9,0,0,0-.91-.91"/><path class="cls-1" d="M93.43,13.7a.91.91,0,1,0,.91.91.94.94,0,0,0-.91-.91"/><path class="cls-1" d="M93.43,11a.91.91,0,1,0,.91.91.89.89,0,0,0-.91-.91"/><path class="cls-1" d="M91,15.13A.91.91,0,1,0,92,16a.89.89,0,0,0-.91-.91"/><path class="cls-1" d="M93.43,2.73a.91.91,0,1,0,.91.91.89.89,0,0,0-.91-.91"/><path class="cls-1" d="M93.43,8.25a.91.91,0,1,0,.91.9.89.89,0,0,0-.91-.9"/><path class="cls-1" d="M91,12.34a.91.91,0,1,0,.91.91.93.93,0,0,0-.91-.91"/><path class="cls-1" d="M93.43,5.46a.91.91,0,1,0,.91.91.89.89,0,0,0-.91-.91"/><path class="cls-1" d="M79.15,13.7a.91.91,0,1,0,.91.91.94.94,0,0,0-.91-.91"/><path class="cls-1" d="M76.76,20.58a.91.91,0,1,0,0,1.82.89.89,0,0,0,.91-.91.93.93,0,0,0-.91-.91"/><path class="cls-1" d="M79.15,16.49a.91.91,0,1,0,.91.91.9.9,0,0,0-.91-.91"/><path class="cls-1" d="M83.87,16.49a.91.91,0,1,0,.91.91.87.87,0,0,0-.91-.91"/><path class="cls-1" d="M79.15,24.74a.91.91,0,1,0,.91.91.89.89,0,0,0-.91-.91"/><path class="cls-1" d="M79.15,19.22a.91.91,0,1,0,.91.91.9.9,0,0,0-.91-.91"/><path class="cls-1" d="M79.15,8.25a.91.91,0,1,0,.91.9.89.89,0,0,0-.91-.9"/><path class="cls-1" d="M79.15,22a.91.91,0,1,0,.91.91.89.89,0,0,0-.91-.91"/><path class="cls-1" d="M79.15,2.73a.91.91,0,1,0,.91.91.9.9,0,0,0-.91-.91"/><path class="cls-1" d="M79.15,29a.57.57,0,1,0,0-1.14.58.58,0,0,0-.57.57.54.54,0,0,0,.57.57"/><path class="cls-1" d="M76.76,28a.91.91,0,1,0-.91-.91.91.91,0,0,0,.91.91"/><path class="cls-1" d="M76.76,23.37a.91.91,0,1,0,.91.91.9.9,0,0,0-.91-.91"/><path class="cls-1" d="M79.15,5.46a.91.91,0,1,0,.91.91.9.9,0,0,0-.91-.91"/><path class="cls-1" d="M79.15,0a.9.9,0,0,0-.91.91.91.91,0,1,0,1.82,0A.9.9,0,0,0,79.15,0"/><path class="cls-1" d="M81.48,1.36a.9.9,0,0,0-.91.91.91.91,0,1,0,1.82,0,.86.86,0,0,0-.91-.91"/><path class="cls-1" d="M79.15,11a.91.91,0,1,0,.91.91.9.9,0,0,0-.91-.91"/><path class="cls-1" d="M83.87,0A.9.9,0,0,0,83,.91a.91.91,0,1,0,1.82,0A.9.9,0,0,0,83.87,0"/><path class="cls-1" d="M83.87,2.73a.91.91,0,1,0,.91.91.87.87,0,0,0-.91-.91"/><path class="cls-1" d="M81.48,28a.91.91,0,1,0-.91-.91.94.94,0,0,0,.91.91"/><path class="cls-1" d="M83.87,13.7a.91.91,0,1,0,.91.91.9.9,0,0,0-.91-.91"/><path class="cls-1" d="M81.48,23.37a.91.91,0,1,0,.91.91.86.86,0,0,0-.91-.91"/><path class="cls-1" d="M83.87,5.46a.91.91,0,1,0,.91.91.9.9,0,0,0-.91-.91"/><path class="cls-1" d="M81.48,15.13a.91.91,0,1,0,.91.91.86.86,0,0,0-.91-.91"/><path class="cls-1" d="M81.48,12.34a.91.91,0,1,0,.91.91.89.89,0,0,0-.91-.91"/><path class="cls-1" d="M81.48,9.61a.91.91,0,1,0,.91.91.86.86,0,0,0-.91-.91"/><path class="cls-1" d="M81.48,6.88a.91.91,0,1,0,.91.91.86.86,0,0,0-.91-.91"/><path class="cls-1" d="M81.48,4.09a.91.91,0,1,0,0,1.82.91.91,0,0,0,0-1.82"/><path class="cls-1" d="M81.48,17.85a.91.91,0,1,0,0,1.82.91.91,0,0,0,0-1.82"/><path class="cls-1" d="M81.48,20.58a.91.91,0,1,0,0,1.82.91.91,0,0,0,0-1.82"/><path class="cls-1" d="M43.39,1.71a.57.57,0,1,0,0,1.13.57.57,0,0,0,0-1.13"/><path class="cls-1" d="M17.23,16.49a.91.91,0,1,0,.91.91.9.9,0,0,0-.91-.91"/><path class="cls-1" d="M17.23,13.7a.91.91,0,1,0,.91.91.9.9,0,0,0-.91-.91"/><path class="cls-1" d="M17.23,8.59a.57.57,0,1,0,.57.56.57.57,0,0,0-.57-.56"/><path class="cls-1" d="M17.23,11a.91.91,0,1,0,.91.91.9.9,0,0,0-.91-.91"/><path class="cls-1" d="M19.62,19.33a.57.57,0,1,0-.57-.57c-.06.35.23.57.57.57"/><path class="cls-1" d="M17.23,19.22a.91.91,0,1,0,.91.91.9.9,0,0,0-.91-.91"/><path class="cls-1" d="M17.23,23.83a.91.91,0,1,0-.91-.91.87.87,0,0,0,.91.91"/><path class="cls-1" d="M14.84,28a.91.91,0,1,0-.91-.91.9.9,0,0,0,.91.91"/><path class="cls-1" d="M14.84,17.85a.91.91,0,1,0,.91.91.9.9,0,0,0-.91-.91"/><path class="cls-1" d="M12.45,22a.91.91,0,1,0,.91.91.89.89,0,0,0-.91-.91"/><path class="cls-1" d="M12.45,24.74a.91.91,0,1,0,.91.91.89.89,0,0,0-.91-.91"/><path class="cls-1" d="M14.84,15.13a.91.91,0,1,0,.91.91.89.89,0,0,0-.91-.91"/><path class="cls-1" d="M14.84,23.37a.91.91,0,1,0,.91.91.9.9,0,0,0-.91-.91"/><path class="cls-1" d="M14.84,20.58a.91.91,0,1,0,.91.91.94.94,0,0,0-.91-.91"/><path class="cls-1" d="M22,15.58a.91.91,0,1,0-.91-.91.9.9,0,0,0,.91.91"/><path class="cls-1" d="M22,11a.91.91,0,1,0,.91.91A.87.87,0,0,0,22,11"/><path class="cls-1" d="M22,8.25a.91.91,0,1,0,.91.9.86.86,0,0,0-.91-.9"/><path class="cls-1" d="M22,5.46a.91.91,0,1,0,.91.91A.9.9,0,0,0,22,5.46"/><path class="cls-1" d="M24.34,19.33a.57.57,0,1,0-.57-.57.56.56,0,0,0,.57.57"/><path class="cls-1" d="M24.34,4.09a.91.91,0,1,0,.91.91.9.9,0,0,0-.91-.91"/><path class="cls-1" d="M19.62,4.09a.91.91,0,1,0,.91.91.9.9,0,0,0-.91-.91"/><path class="cls-1" d="M22,2.73a.91.91,0,1,0,.91.91A.87.87,0,0,0,22,2.73"/><path class="cls-1" d="M19.62,6.88a.91.91,0,1,0,.91.91.9.9,0,0,0-.91-.91"/><path class="cls-1" d="M19.62,12.34a.91.91,0,1,0,.91.91.93.93,0,0,0-.91-.91"/><path class="cls-1" d="M19.62,9.61a.91.91,0,1,0,.91.91.9.9,0,0,0-.91-.91"/><path class="cls-1" d="M19.62,15.13a.91.91,0,1,0,.91.91.89.89,0,0,0-.91-.91"/><path class="cls-1" d="M22,.34a.58.58,0,0,0-.57.57.57.57,0,0,0,.57.57.58.58,0,0,0,.57-.57A.52.52,0,0,0,22,.34"/><path class="cls-1" d="M19.62,1.71a.57.57,0,1,0,.57.56.61.61,0,0,0-.57-.56"/><path class="cls-1" d="M24.34,1.71a.57.57,0,1,0,.57.56.57.57,0,0,0-.57-.56"/><path class="cls-1" d="M5.35,6a.91.91,0,1,0-.91-.91A.93.93,0,0,0,5.35,6"/><path class="cls-1" d="M7.68,2.73a.91.91,0,1,0,.91.91.89.89,0,0,0-.91-.91"/><path class="cls-1" d="M7.68,5.46a.91.91,0,1,0,.91.91.89.89,0,0,0-.91-.91"/><path class="cls-1" d="M7.68,11a.91.91,0,1,0,.91.91A.89.89,0,0,0,7.68,11"/><path class="cls-1" d="M7.68,8.25a.91.91,0,1,0,.91.9.89.89,0,0,0-.91-.9"/><path class="cls-1" d="M5.35,11.49a.91.91,0,1,0-.91-.91.93.93,0,0,0,.91.91"/><path class="cls-1" d="M24.34,6.88a.91.91,0,1,0,.91.91.87.87,0,0,0-.91-.91"/><path class="cls-1" d="M5.35,8.7a.91.91,0,1,0-.91-.91.89.89,0,0,0,.91.91"/><path class="cls-1" d="M7.68,0a.89.89,0,0,0-.91.91.91.91,0,0,0,1.82,0A.9.9,0,0,0,7.68,0"/><path class="cls-1" d="M3,2.73a.91.91,0,1,0,.91.91A.87.87,0,0,0,3,2.73"/><path class="cls-1" d="M3,0a.9.9,0,0,0-.91.91.91.91,0,0,0,1.82,0A.9.9,0,0,0,3,0"/><path class="cls-1" d="M.57,1.71a.57.57,0,1,0,.57.56.54.54,0,0,0-.57-.56"/><path class="cls-1" d="M3,5.46a.91.91,0,1,0,.91.91A.9.9,0,0,0,3,5.46"/><path class="cls-1" d="M5.35,1.36a.89.89,0,0,0-.91.91.91.91,0,1,0,1.81,0,.89.89,0,0,0-.9-.91"/><path class="cls-1" d="M7.68,18a.57.57,0,1,0-.57-.57.57.57,0,0,0,.57.57"/><path class="cls-1" d="M10.06,4.44a.57.57,0,1,0,.57.56.56.56,0,0,0-.57-.56"/><path class="cls-1" d="M12.45,29a.57.57,0,0,0,0-1.14.58.58,0,0,0-.57.57.57.57,0,0,0,.57.57"/><path class="cls-1" d="M12.45,11.32a.57.57,0,1,0,.57.56.6.6,0,0,0-.57-.56"/><path class="cls-1" d="M12.45,8.59a.57.57,0,1,0,.57.56.56.56,0,0,0-.57-.56"/><path class="cls-1" d="M31.5,8.59a.57.57,0,1,0,.57.56.53.53,0,0,0-.57-.56"/><path class="cls-1" d="M14.84,12.68a.57.57,0,0,0-.57.57.57.57,0,0,0,1.14,0,.61.61,0,0,0-.57-.57"/><path class="cls-1" d="M29.11,12.68a.56.56,0,0,0-.56.57.57.57,0,0,0,.56.57.58.58,0,0,0,.57-.57.57.57,0,0,0-.57-.57"/><path class="cls-1" d="M10.06,17.85a.91.91,0,0,0,0,1.82.91.91,0,0,0,0-1.82"/><path class="cls-1" d="M10.06,20.58a.91.91,0,0,0,0,1.82.89.89,0,0,0,.91-.91.93.93,0,0,0-.91-.91"/><path class="cls-1" d="M7.68,13.7a.91.91,0,1,0,.91.91.89.89,0,0,0-.91-.91"/><path class="cls-1" d="M12.45,13.7a.91.91,0,1,0,.91.91.9.9,0,0,0-.91-.91"/><path class="cls-1" d="M12.45,16.49a.91.91,0,1,0,.91.91.9.9,0,0,0-.91-.91"/><path class="cls-1" d="M12.45,19.22a.91.91,0,1,0,.91.91.9.9,0,0,0-.91-.91"/><path class="cls-1" d="M10.06,6.88a.91.91,0,1,0,.91.91.9.9,0,0,0-.91-.91"/><path class="cls-1" d="M10.06,15.13A.91.91,0,1,0,11,16a.89.89,0,0,0-.91-.91"/><path class="cls-1" d="M10.06,24.85a.57.57,0,1,0-.56-.57.53.53,0,0,0,.56.57"/><path class="cls-1" d="M10.06,12.34a.91.91,0,1,0,.91.91.93.93,0,0,0-.91-.91"/><path class="cls-1" d="M10.06,9.61a.91.91,0,1,0,.91.91.9.9,0,0,0-.91-.91"/><path class="cls-1" d="M33.89,24.85a.57.57,0,0,0,0-1.14.62.62,0,0,0-.57.57.54.54,0,0,0,.57.57"/><path class="cls-1" d="M38.67,6.88a.91.91,0,1,0,.91.91.89.89,0,0,0-.91-.91"/><path class="cls-1" d="M38.67,4.09a.91.91,0,1,0,.91.91.89.89,0,0,0-.91-.91"/><path class="cls-1" d="M38.67,11.49a.91.91,0,1,0,0-1.82.91.91,0,1,0,0,1.82"/><path class="cls-1" d="M41.05,7.34a.91.91,0,1,0-.9-.91.89.89,0,0,0,.9.91"/><path class="cls-1" d="M38.67,1.36a.89.89,0,0,0-.91.91.91.91,0,0,0,1.82,0,.9.9,0,0,0-.91-.91"/><path class="cls-1" d="M41.05,2.73a.91.91,0,1,0,.91.91.89.89,0,0,0-.91-.91"/><path class="cls-1" d="M41.05,0a.89.89,0,0,0-.9.91A.91.91,0,1,0,42,.91.89.89,0,0,0,41.05,0"/><path class="cls-1" d="M36.28,11a.91.91,0,1,0,.91.91.9.9,0,0,0-.91-.91"/><path class="cls-1" d="M36.28,5.46a.91.91,0,1,0,.91.91.9.9,0,0,0-.91-.91"/><path class="cls-1" d="M36.28,2.73a.91.91,0,1,0,.91.91.9.9,0,0,0-.91-.91"/><path class="cls-1" d="M36.28,0a.9.9,0,0,0-.91.91.91.91,0,0,0,1.82,0A.9.9,0,0,0,36.28,0"/><path class="cls-1" d="M49.53,29a.57.57,0,0,0,.57-.57.57.57,0,1,0-1.14,0c-.06.29.23.57.57.57"/><path class="cls-1" d="M36.28,18a.57.57,0,1,0-.57-.57.54.54,0,0,0,.57.57"/><path class="cls-1" d="M36.28,13.7a.91.91,0,1,0,.91.91.9.9,0,0,0-.91-.91"/><path class="cls-1" d="M36.28,8.25a.91.91,0,1,0,.91.9.89.89,0,0,0-.91-.9"/><path class="cls-1" d="M49.53,19.22a.91.91,0,1,0,.91.91.9.9,0,0,0-.91-.91"/><path class="cls-1" d="M49.53,24.74a.91.91,0,1,0,.91.91.89.89,0,0,0-.91-.91"/><path class="cls-1" d="M49.53,22a.91.91,0,1,0,.91.91.89.89,0,0,0-.91-.91"/><path class="cls-1" d="M51.86,1.36a.9.9,0,0,0-.91.91.91.91,0,1,0,1.82,0,.87.87,0,0,0-.91-.91"/><path class="cls-1" d="M51.86,4.09a.91.91,0,1,0,.91.91.9.9,0,0,0-.91-.91"/><path class="cls-1" d="M51.86,6.88a.91.91,0,1,0,.91.91.87.87,0,0,0-.91-.91"/><path class="cls-1" d="M49.53,11a.91.91,0,1,0,.91.91.9.9,0,0,0-.91-.91"/><path class="cls-1" d="M49.53,16.49a.91.91,0,1,0,.91.91.9.9,0,0,0-.91-.91"/><path class="cls-1" d="M49.53,8.25a.91.91,0,1,0,.91.9.89.89,0,0,0-.91-.9"/><path class="cls-1" d="M49.53,2.73a.91.91,0,1,0,.91.91.9.9,0,0,0-.91-.91"/><path class="cls-1" d="M49.53,5.46a.91.91,0,1,0,.91.91.9.9,0,0,0-.91-.91"/><path class="cls-1" d="M49.53,0a.9.9,0,0,0-.91.91.91.91,0,0,0,1.82,0A.9.9,0,0,0,49.53,0"/><path class="cls-1" d="M49.53,13.7a.91.91,0,1,0,.91.91.94.94,0,0,0-.91-.91"/><path class="cls-1" d="M24.34,9.61a.91.91,0,1,0,.91.91.87.87,0,0,0-.91-.91"/><path class="cls-1" d="M29.11,15.13A.91.91,0,1,0,30,16a.89.89,0,0,0-.91-.91"/><path class="cls-1" d="M26.73,19.22a.91.91,0,1,0,.91.91.87.87,0,0,0-.91-.91"/><path class="cls-1" d="M31.5,29a.57.57,0,0,0,0-1.14.58.58,0,0,0-.57.57.57.57,0,0,0,.57.57"/><path class="cls-1" d="M29.11,17.85a.91.91,0,0,0,0,1.82.91.91,0,0,0,0-1.82"/><path class="cls-1" d="M29.11,28a.91.91,0,1,0-.91-.91.94.94,0,0,0,.91.91"/><path class="cls-1" d="M29.11,20.58a.91.91,0,0,0,0,1.82.89.89,0,0,0,.91-.91.93.93,0,0,0-.91-.91"/><path class="cls-1" d="M29.11,23.37a.91.91,0,1,0,.91.91.9.9,0,0,0-.91-.91"/><path class="cls-1" d="M26.73,23.83a.91.91,0,1,0,0-1.82.91.91,0,1,0,0,1.82"/><path class="cls-1" d="M26.73,8.59a.57.57,0,1,0,.56.56.52.52,0,0,0-.56-.56"/><path class="cls-1" d="M24.34,15.13a.91.91,0,1,0,.91.91.87.87,0,0,0-.91-.91"/><path class="cls-1" d="M24.34,12.34a.91.91,0,1,0,.91.91.9.9,0,0,0-.91-.91"/><path class="cls-1" d="M26.73,16.49a.91.91,0,1,0,.91.91.87.87,0,0,0-.91-.91"/><path class="cls-1" d="M26.73,11a.91.91,0,1,0,.91.91.87.87,0,0,0-.91-.91"/><path class="cls-1" d="M26.73,13.7a.91.91,0,1,0,.91.91.89.89,0,0,0-.91-.91"/><path class="cls-1" d="M33.89,12.34a.91.91,0,1,0,.91.91.93.93,0,0,0-.91-.91"/><path class="cls-1" d="M33.89,9.61a.91.91,0,1,0,.91.91.9.9,0,0,0-.91-.91"/><path class="cls-1" d="M33.89,20.58a.91.91,0,1,0,.91.91.94.94,0,0,0-.91-.91"/><path class="cls-1" d="M31.5,11.32a.57.57,0,1,0,.57.56.57.57,0,0,0-.57-.56"/><path class="cls-1" d="M33.89,17.85a.91.91,0,1,0,.91.91.9.9,0,0,0-.91-.91"/><path class="cls-1" d="M33.89,15.13a.91.91,0,1,0,.91.91.89.89,0,0,0-.91-.91"/><path class="cls-1" d="M33.89,4.44a.57.57,0,1,0,0,1.13A.61.61,0,0,0,34.46,5a.61.61,0,0,0-.57-.56"/><path class="cls-1" d="M33.89,6.88a.91.91,0,1,0,.91.91.9.9,0,0,0-.91-.91"/><path class="cls-1" d="M31.5,16.49a.91.91,0,1,0,.91.91.9.9,0,0,0-.91-.91"/><path class="cls-1" d="M31.5,13.7a.91.91,0,1,0,.91.91.9.9,0,0,0-.91-.91"/><path class="cls-1" d="M31.5,19.22a.91.91,0,1,0,.91.91.9.9,0,0,0-.91-.91"/><path class="cls-1" d="M51.86,9.61a.91.91,0,1,0,.91.91.87.87,0,0,0-.91-.91"/><path class="cls-1" d="M31.5,22a.91.91,0,1,0,.91.91A.89.89,0,0,0,31.5,22"/><path class="cls-1" d="M31.5,24.74a.91.91,0,1,0,.91.91.89.89,0,0,0-.91-.91"/><polygon class="cls-2" points="237.17 17.33 243.86 17.33 240.52 8.16 237.17 17.33"/><path class="cls-2" d="M266.78,5.26h-5v7.16h5c1.88,0,2.82-.45,3.48-1.15a3.44,3.44,0,0,0,.94-2.41,3.58,3.58,0,0,0-.94-2.46C269.6,5.71,268.66,5.26,266.78,5.26Z"/><polygon class="cls-2" points="162.92 17.33 169.6 17.33 166.26 8.16 162.92 17.33"/><path class="cls-1" d="M163.62.35,153.13,29h5.52l2.47-6.77H171.4L173.88,29h5.51L168.89.35Zm-.7,17,3.34-9.17,3.34,9.17Z"/><path class="cls-1" d="M237.88.35,227.39,29h5.52l2.47-6.77h10.27L248.14,29h5.51L243.14.35Zm-.71,17,3.35-9.17,3.34,9.17Z"/><polygon class="cls-1" points="200.9 18.57 186.22 0.35 182.01 0.35 182.01 29 187.53 29 187.53 10.32 202.57 29 206.41 29 206.41 0.35 200.9 0.35 200.9 18.57"/><polygon class="cls-1" points="230.34 0.35 209.71 0.35 209.71 5.25 217.27 5.25 217.27 29 222.78 29 222.78 5.25 230.34 5.25 230.34 0.35"/><path class="cls-1" d="M274.47,14.79a8.57,8.57,0,0,0,2.26-5.93,8.61,8.61,0,0,0-2.26-5.94C272.88,1.25,270.71.35,267,.35H256.26V29h5.53V17.33h4.5L274.66,29h6l-8.95-12.4A7.1,7.1,0,0,0,274.47,14.79Zm-4.21-3.52c-.66.7-1.6,1.15-3.48,1.15h-5V5.26h5c1.88,0,2.82.45,3.48,1.14a3.58,3.58,0,0,1,.94,2.46A3.44,3.44,0,0,1,270.26,11.27Z"/><polygon class="cls-1" points="145.81 0.35 135.55 14.67 145.81 29 151.81 29 141.54 14.67 151.81 0.35 145.81 0.35"/><rect class="cls-3" x="133.72" y="0.35" width="1.69" height="28.65"/><rect class="cls-1" x="128.72" y="0.35" width="5" height="28.65"/><line class="cls-4" x1="112.72" x2="112.72" y2="29"/></svg>